<?xml version="1.0" encoding="UTF-8" standalone="no"?>
<!DOCTYPE svg PUBLIC "-//W3C//DTD SVG 1.1//EN"
 "http://www.w3.org/Graphics/SVG/1.1/DTD/svg11.dtd">
<!-- Generated by graphviz version 2.43.0 (0)
 -->
<!-- Title: KeeperArchitecture Pages: 1 -->
<svg width="2235pt" height="868pt"
 viewBox="0.00 0.00 2234.76 867.80" xmlns="http://www.w3.org/2000/svg" xmlns:xlink="http://www.w3.org/1999/xlink">
<g id="graph0" class="graph" transform="scale(1 1) rotate(0) translate(14.4 853.4)">
<title>KeeperArchitecture</title>
<polygon fill="white" stroke="transparent" points="-14.4,14.4 -14.4,-853.4 2220.36,-853.4 2220.36,14.4 -14.4,14.4"/>
<g id="clust1" class="cluster">
<title>cluster_entry</title>
<path fill="white" stroke="#cbd5e1" d="M376.96,-13C376.96,-13 476.96,-13 476.96,-13 482.96,-13 488.96,-19 488.96,-25 488.96,-25 488.96,-152 488.96,-152 488.96,-158 482.96,-164 476.96,-164 476.96,-164 376.96,-164 376.96,-164 370.96,-164 364.96,-158 364.96,-152 364.96,-152 364.96,-25 364.96,-25 364.96,-19 370.96,-13 376.96,-13"/>
<text text-anchor="middle" x="426.96" y="-148.8" font-family="Helvetica,sans-Serif" font-size="14.00">Entry points</text>
</g>
<g id="clust2" class="cluster">
<title>cluster_snapshot</title>
<path fill="white" stroke="#cbd5e1" d="M1130.96,-449C1130.96,-449 2185.96,-449 2185.96,-449 2191.96,-449 2197.96,-455 2197.96,-461 2197.96,-461 2197.96,-600 2197.96,-600 2197.96,-606 2191.96,-612 2185.96,-612 2185.96,-612 1130.96,-612 1130.96,-612 1124.96,-612 1118.96,-606 1118.96,-600 1118.96,-600 1118.96,-461 1118.96,-461 1118.96,-455 1124.96,-449 1130.96,-449"/>
<text text-anchor="middle" x="1658.46" y="-596.8" font-family="Helvetica,sans-Serif" font-size="14.00">Snapshot layer</text>
</g>
<g id="clust3" class="cluster">
<title>cluster_decision</title>
<path fill="white" stroke="#cbd5e1" d="M853.96,-290C853.96,-290 1243.46,-290 1243.46,-290 1249.46,-290 1255.46,-296 1255.46,-302 1255.46,-302 1255.46,-429 1255.46,-429 1255.46,-435 1249.46,-441 1243.46,-441 1243.46,-441 853.96,-441 853.96,-441 847.96,-441 841.96,-435 841.96,-429 841.96,-429 841.96,-302 841.96,-302 841.96,-296 847.96,-290 853.96,-290"/>
<text text-anchor="middle" x="1048.71" y="-425.8" font-family="Helvetica,sans-Serif" font-size="14.00">Decision layer</text>
</g>
<g id="clust4" class="cluster">
<title>cluster_execution</title>
<path fill="white" stroke="#cbd5e1" d="M597.96,-620C597.96,-620 1506.96,-620 1506.96,-620 1512.96,-620 1518.96,-626 1518.96,-632 1518.96,-632 1518.96,-685 1518.96,-685 1518.96,-691 1512.96,-697 1506.96,-697 1506.96,-697 597.96,-697 597.96,-697 591.96,-697 585.96,-691 585.96,-685 585.96,-685 585.96,-632 585.96,-632 585.96,-626 591.96,-620 597.96,-620"/>
<text text-anchor="middle" x="1052.46" y="-681.8" font-family="Helvetica,sans-Serif" font-size="14.00">Execution layer</text>
</g>
<g id="clust5" class="cluster">
<title>cluster_outputs</title>
<path fill="white" stroke="#cbd5e1" d="M1697.96,-680C1697.96,-680 2173.46,-680 2173.46,-680 2179.46,-680 2185.46,-686 2185.46,-692 2185.46,-692 2185.46,-819 2185.46,-819 2185.46,-825 2179.46,-831 2173.46,-831 2173.46,-831 1697.96,-831 1697.96,-831 1691.96,-831 1685.96,-825 1685.96,-819 1685.96,-819 1685.96,-692 1685.96,-692 1685.96,-686 1691.96,-680 1697.96,-680"/>
<text text-anchor="middle" x="1935.71" y="-815.8" font-family="Helvetica,sans-Serif" font-size="14.00">Outputs</text>
</g>
<!-- operator -->
<g id="node1" class="node">
<title>operator</title>
<ellipse fill="#fff7ed" stroke="#c2410c" cx="156.98" cy="-76" rx="156.96" ry="26.74"/>
<text text-anchor="middle" x="156.98" y="-79.2" font-family="Helvetica,sans-Serif" font-size="11.00">Operator</text>
<text text-anchor="middle" x="156.98" y="-67.2" font-family="Helvetica,sans-Serif" font-size="11.00">config + env + optional payload/snapshot</text>
</g>
<!-- cli -->
<g id="node2" class="node">
<title>cli</title>
<path fill="#f8fafc" stroke="#334155" d="M468.96,-133C468.96,-133 384.96,-133 384.96,-133 378.96,-133 372.96,-127 372.96,-121 372.96,-121 372.96,-107 372.96,-107 372.96,-101 378.96,-95 384.96,-95 384.96,-95 468.96,-95 468.96,-95 474.96,-95 480.96,-101 480.96,-107 480.96,-107 480.96,-121 480.96,-121 480.96,-127 474.96,-133 468.96,-133"/>
<text text-anchor="middle" x="426.96" y="-117.2" font-family="Helvetica,sans-Serif" font-size="11.00">cli.ts</text>
<text text-anchor="middle" x="426.96" y="-105.2" font-family="Helvetica,sans-Serif" font-size="11.00">run / run&#45;payload</text>
</g>
<!-- operator&#45;&gt;cli -->
<g id="edge1" class="edge">
<title>operator&#45;&gt;cli</title>
<path fill="none" stroke="#475569" d="M239.08,-98.94C239.08,-98.94 365.94,-98.94 365.94,-98.94"/>
<polygon fill="#475569" stroke="#475569" points="365.95,-101.39 372.94,-98.94 365.94,-96.49 365.95,-101.39"/>
</g>
<!-- keeperhub -->
<g id="node3" class="node">
<title>keeperhub</title>
<path fill="#f8fafc" stroke="#334155" d="M466.96,-59C466.96,-59 386.96,-59 386.96,-59 380.96,-59 374.96,-53 374.96,-47 374.96,-47 374.96,-33 374.96,-33 374.96,-27 380.96,-21 386.96,-21 386.96,-21 466.96,-21 466.96,-21 472.96,-21 478.96,-27 478.96,-33 478.96,-33 478.96,-47 478.96,-47 478.96,-53 472.96,-59 466.96,-59"/>
<text text-anchor="middle" x="426.96" y="-43.2" font-family="Helvetica,sans-Serif" font-size="11.00">keeperhub.ts</text>
<text text-anchor="middle" x="426.96" y="-31.2" font-family="Helvetica,sans-Serif" font-size="11.00">payload adapter</text>
</g>
<!-- operator&#45;&gt;keeperhub -->
<g id="edge2" class="edge">
<title>operator&#45;&gt;keeperhub</title>
<path fill="none" stroke="#475569" d="M248,-54.06C248,-54.06 367.87,-54.06 367.87,-54.06"/>
<polygon fill="#475569" stroke="#475569" points="367.87,-56.52 374.87,-54.06 367.87,-51.62 367.87,-56.52"/>
</g>
<!-- file_source -->
<g id="node4" class="node">
<title>file_source</title>
<path fill="#f8fafc" stroke="#334155" d="M1899.96,-507C1899.96,-507 1677.96,-507 1677.96,-507 1671.96,-507 1665.96,-501 1665.96,-495 1665.96,-495 1665.96,-469 1665.96,-469 1665.96,-463 1671.96,-457 1677.96,-457 1677.96,-457 1899.96,-457 1899.96,-457 1905.96,-457 1911.96,-463 1911.96,-469 1911.96,-469 1911.96,-495 1911.96,-495 1911.96,-501 1905.96,-507 1899.96,-507"/>
<text text-anchor="middle" x="1788.96" y="-491.2" font-family="Helvetica,sans-Serif" font-size="11.00">snapshot.ts</text>
<text text-anchor="middle" x="1788.96" y="-479.2" font-family="Helvetica,sans-Serif" font-size="11.00">FileSnapshotSource / StaticSnapshotSource /</text>
<text text-anchor="middle" x="1788.96" y="-467.2" font-family="Helvetica,sans-Serif" font-size="11.00">PayloadThenLiveSnapshotSource</text>
</g>
<!-- cli&#45;&gt;file_source -->
<g id="edge5" class="edge">
<title>cli&#45;&gt;file_source</title>
<path fill="none" stroke="#475569" d="M444.96,-133.1C444.96,-206.28 444.96,-464.67 444.96,-464.67 444.96,-464.67 1658.82,-464.67 1658.82,-464.67"/>
<polygon fill="#475569" stroke="#475569" points="1658.82,-467.12 1665.82,-464.67 1658.82,-462.22 1658.82,-467.12"/>
<text text-anchor="middle" x="1051.46" y="-98" font-family="Helvetica,sans-Serif" font-size="10.00">optional file snapshot</text>
</g>
<!-- run_cycle -->
<g id="node12" class="node">
<title>run_cycle</title>
<path fill="#f8fafc" stroke="#334155" d="M778.96,-666C778.96,-666 605.96,-666 605.96,-666 599.96,-666 593.96,-660 593.96,-654 593.96,-654 593.96,-640 593.96,-640 593.96,-634 599.96,-628 605.96,-628 605.96,-628 778.96,-628 778.96,-628 784.96,-628 790.96,-634 790.96,-640 790.96,-640 790.96,-654 790.96,-654 790.96,-660 784.96,-666 778.96,-666"/>
<text text-anchor="middle" x="692.46" y="-650.2" font-family="Helvetica,sans-Serif" font-size="11.00">run&#45;cycle.ts</text>
<text text-anchor="middle" x="692.46" y="-638.2" font-family="Helvetica,sans-Serif" font-size="11.00">orchestrate plan / recheck / execute</text>
</g>
<!-- cli&#45;&gt;run_cycle -->
<g id="edge3" class="edge">
<title>cli&#45;&gt;run_cycle</title>
<path fill="none" stroke="#475569" d="M408.96,-133.28C408.96,-228.84 408.96,-647 408.96,-647 408.96,-647 586.7,-647 586.7,-647"/>
<polygon fill="#475569" stroke="#475569" points="586.7,-649.45 593.7,-647 586.7,-644.55 586.7,-649.45"/>
<text text-anchor="middle" x="537.46" y="-404" font-family="Helvetica,sans-Serif" font-size="10.00">invoke cycle</text>
</g>
<!-- keeperhub&#45;&gt;file_source -->
<g id="edge6" class="edge">
<title>keeperhub&#45;&gt;file_source</title>
<path fill="none" stroke="#475569" d="M479.1,-33.67C728.64,-33.67 1788.96,-33.67 1788.96,-33.67 1788.96,-33.67 1788.96,-449.93 1788.96,-449.93"/>
<polygon fill="#475569" stroke="#475569" points="1786.51,-449.93 1788.96,-456.93 1791.41,-449.94 1786.51,-449.93"/>
<text text-anchor="middle" x="1051.46" y="-3" font-family="Helvetica,sans-Serif" font-size="10.00">payload snapshot</text>
</g>
<!-- keeperhub&#45;&gt;run_cycle -->
<g id="edge4" class="edge">
<title>keeperhub&#45;&gt;run_cycle</title>
<path fill="none" stroke="#475569" d="M479.19,-46.33C540.51,-46.33 633.96,-46.33 633.96,-46.33 633.96,-46.33 633.96,-620.7 633.96,-620.7"/>
<polygon fill="#475569" stroke="#475569" points="631.51,-620.7 633.96,-627.7 636.41,-620.7 631.51,-620.7"/>
<text text-anchor="middle" x="537.46" y="-63" font-family="Helvetica,sans-Serif" font-size="10.00">invoke cycle</text>
</g>
<!-- pool_snapshot -->
<g id="node8" class="node">
<title>pool_snapshot</title>
<path fill="#f8fafc" stroke="#334155" d="M2177.96,-581C2177.96,-581 1982.96,-581 1982.96,-581 1976.96,-581 1970.96,-575 1970.96,-569 1970.96,-569 1970.96,-555 1970.96,-555 1970.96,-549 1976.96,-543 1982.96,-543 1982.96,-543 2177.96,-543 2177.96,-543 2183.96,-543 2189.96,-549 2189.96,-555 2189.96,-555 2189.96,-569 2189.96,-569 2189.96,-575 2183.96,-581 2177.96,-581"/>
<text text-anchor="middle" x="2080.46" y="-565.2" font-family="Helvetica,sans-Serif" font-size="11.00">PoolSnapshot</text>
<text text-anchor="middle" x="2080.46" y="-553.2" font-family="Helvetica,sans-Serif" font-size="11.00">current rate + passive path + candidates</text>
</g>
<!-- file_source&#45;&gt;pool_snapshot -->
<g id="edge12" class="edge">
<title>file_source&#45;&gt;pool_snapshot</title>
<path fill="none" stroke="#475569" d="M1897.96,-507.35C1897.96,-528.66 1897.96,-555.67 1897.96,-555.67 1897.96,-555.67 1963.87,-555.67 1963.87,-555.67"/>
<polygon fill="#475569" stroke="#475569" points="1963.87,-558.12 1970.87,-555.67 1963.87,-553.22 1963.87,-558.12"/>
</g>
<!-- ajna_source -->
<g id="node5" class="node">
<title>ajna_source</title>
<path fill="#f8fafc" stroke="#334155" d="M1262.96,-518C1262.96,-518 1138.96,-518 1138.96,-518 1132.96,-518 1126.96,-512 1126.96,-506 1126.96,-506 1126.96,-492 1126.96,-492 1126.96,-486 1132.96,-480 1138.96,-480 1138.96,-480 1262.96,-480 1262.96,-480 1268.96,-480 1274.96,-486 1274.96,-492 1274.96,-492 1274.96,-506 1274.96,-506 1274.96,-512 1268.96,-518 1262.96,-518"/>
<text text-anchor="middle" x="1200.96" y="-502.2" font-family="Helvetica,sans-Serif" font-size="11.00">ajna/snapshot.ts</text>
<text text-anchor="middle" x="1200.96" y="-490.2" font-family="Helvetica,sans-Serif" font-size="11.00">AjnaRpcSnapshotSource</text>
</g>
<!-- ajna_reads -->
<g id="node6" class="node">
<title>ajna_reads</title>
<path fill="#f8fafc" stroke="#334155" d="M1508.96,-518C1508.96,-518 1345.96,-518 1345.96,-518 1339.96,-518 1333.96,-512 1333.96,-506 1333.96,-506 1333.96,-492 1333.96,-492 1333.96,-486 1339.96,-480 1345.96,-480 1345.96,-480 1508.96,-480 1508.96,-480 1514.96,-480 1520.96,-486 1520.96,-492 1520.96,-492 1520.96,-506 1520.96,-506 1520.96,-512 1514.96,-518 1508.96,-518"/>
<text text-anchor="middle" x="1427.46" y="-502.2" font-family="Helvetica,sans-Serif" font-size="11.00">Ajna RPC reads</text>
<text text-anchor="middle" x="1427.46" y="-490.2" font-family="Helvetica,sans-Serif" font-size="11.00">block&#45;pinned pool + account state</text>
</g>
<!-- ajna_source&#45;&gt;ajna_reads -->
<g id="edge9" class="edge">
<title>ajna_source&#45;&gt;ajna_reads</title>
<path fill="none" stroke="#475569" d="M1275.12,-499C1275.12,-499 1326.69,-499 1326.69,-499"/>
<polygon fill="#475569" stroke="#475569" points="1326.69,-501.45 1333.69,-499 1326.69,-496.55 1326.69,-501.45"/>
</g>
<!-- synthesis -->
<g id="node7" class="node">
<title>synthesis</title>
<path fill="#f8fafc" stroke="#334155" d="M1863.96,-581C1863.96,-581 1713.96,-581 1713.96,-581 1707.96,-581 1701.96,-575 1701.96,-569 1701.96,-569 1701.96,-555 1701.96,-555 1701.96,-549 1707.96,-543 1713.96,-543 1713.96,-543 1863.96,-543 1863.96,-543 1869.96,-543 1875.96,-549 1875.96,-555 1875.96,-555 1875.96,-569 1875.96,-569 1875.96,-575 1869.96,-581 1863.96,-581"/>
<text text-anchor="middle" x="1788.96" y="-565.2" font-family="Helvetica,sans-Serif" font-size="11.00">exact + heuristic synthesis</text>
<text text-anchor="middle" x="1788.96" y="-553.2" font-family="Helvetica,sans-Serif" font-size="11.00">lend / borrow / dual candidates</text>
</g>
<!-- ajna_reads&#45;&gt;synthesis -->
<g id="edge10" class="edge">
<title>ajna_reads&#45;&gt;synthesis</title>
<path fill="none" stroke="#475569" d="M1515.96,-518.24C1515.96,-536.77 1515.96,-562 1515.96,-562 1515.96,-562 1694.83,-562 1694.83,-562"/>
<polygon fill="#475569" stroke="#475569" points="1694.83,-564.45 1701.83,-562 1694.83,-559.55 1694.83,-564.45"/>
</g>
<!-- synthesis&#45;&gt;pool_snapshot -->
<g id="edge11" class="edge">
<title>synthesis&#45;&gt;pool_snapshot</title>
<path fill="none" stroke="#475569" d="M1876.02,-568.33C1876.02,-568.33 1963.83,-568.33 1963.83,-568.33"/>
<polygon fill="#475569" stroke="#475569" points="1963.83,-570.78 1970.83,-568.33 1963.83,-565.88 1963.83,-570.78"/>
</g>
<!-- planner -->
<g id="node9" class="node">
<title>planner</title>
<path fill="#f8fafc" stroke="#334155" d="M941.46,-336C941.46,-336 884.46,-336 884.46,-336 878.46,-336 872.46,-330 872.46,-324 872.46,-324 872.46,-310 872.46,-310 872.46,-304 878.46,-298 884.46,-298 884.46,-298 941.46,-298 941.46,-298 947.46,-298 953.46,-304 953.46,-310 953.46,-310 953.46,-324 953.46,-324 953.46,-330 947.46,-336 941.46,-336"/>
<text text-anchor="middle" x="912.96" y="-320.2" font-family="Helvetica,sans-Serif" font-size="11.00">planner.ts</text>
<text text-anchor="middle" x="912.96" y="-308.2" font-family="Helvetica,sans-Serif" font-size="11.00">planCycle()</text>
</g>
<!-- pool_snapshot&#45;&gt;planner -->
<g id="edge13" class="edge">
<title>pool_snapshot&#45;&gt;planner</title>
<path fill="none" stroke="#475569" d="M2080.96,-542.63C2080.96,-489.95 2080.96,-348 2080.96,-348 2080.96,-348 912.96,-348 912.96,-348 912.96,-348 912.96,-343.1 912.96,-343.1"/>
<polygon fill="#475569" stroke="#475569" points="915.41,-343.1 912.96,-336.1 910.51,-343.1 915.41,-343.1"/>
</g>
<!-- policy -->
<g id="node10" class="node">
<title>policy</title>
<path fill="#f8fafc" stroke="#334155" d="M1235.46,-336C1235.46,-336 1166.46,-336 1166.46,-336 1160.46,-336 1154.46,-330 1154.46,-324 1154.46,-324 1154.46,-310 1154.46,-310 1154.46,-304 1160.46,-298 1166.46,-298 1166.46,-298 1235.46,-298 1235.46,-298 1241.46,-298 1247.46,-304 1247.46,-310 1247.46,-310 1247.46,-324 1247.46,-324 1247.46,-330 1241.46,-336 1235.46,-336"/>
<text text-anchor="middle" x="1200.96" y="-320.2" font-family="Helvetica,sans-Serif" font-size="11.00">policy.ts</text>
<text text-anchor="middle" x="1200.96" y="-308.2" font-family="Helvetica,sans-Serif" font-size="11.00">validatePlan()</text>
</g>
<!-- planner&#45;&gt;policy -->
<g id="edge14" class="edge">
<title>planner&#45;&gt;policy</title>
<path fill="none" stroke="#475569" d="M953.61,-317C953.61,-317 1147.31,-317 1147.31,-317"/>
<polygon fill="#475569" stroke="#475569" points="1147.31,-319.45 1154.31,-317 1147.31,-314.55 1147.31,-319.45"/>
</g>
<!-- policy&#45;&gt;run_cycle -->
<g id="edge15" class="edge">
<title>policy&#45;&gt;run_cycle</title>
<path fill="none" stroke="#475569" d="M1200.96,-336.24C1200.96,-347.69 1200.96,-360 1200.96,-360 1200.96,-360 672.96,-360 672.96,-360 672.96,-360 672.96,-620.72 672.96,-620.72"/>
<polygon fill="#475569" stroke="#475569" points="670.51,-620.72 672.96,-627.72 675.41,-620.72 670.51,-620.72"/>
</g>
<!-- recheck -->
<g id="node11" class="node">
<title>recheck</title>
<path fill="#f8fafc" stroke="#334155" d="M963.96,-410C963.96,-410 861.96,-410 861.96,-410 855.96,-410 849.96,-404 849.96,-398 849.96,-398 849.96,-384 849.96,-384 849.96,-378 855.96,-372 861.96,-372 861.96,-372 963.96,-372 963.96,-372 969.96,-372 975.96,-378 975.96,-384 975.96,-384 975.96,-398 975.96,-398 975.96,-404 969.96,-410 963.96,-410"/>
<text text-anchor="middle" x="912.96" y="-394.2" font-family="Helvetica,sans-Serif" font-size="11.00">policy.ts</text>
<text text-anchor="middle" x="912.96" y="-382.2" font-family="Helvetica,sans-Serif" font-size="11.00">preSubmitRecheck()</text>
</g>
<!-- recheck&#45;&gt;ajna_source -->
<g id="edge17" class="edge">
<title>recheck&#45;&gt;ajna_source</title>
<path fill="none" stroke="#475569" d="M972.96,-410.12C972.96,-439.57 972.96,-492.67 972.96,-492.67 972.96,-492.67 1119.93,-492.67 1119.93,-492.67"/>
<polygon fill="#475569" stroke="#475569" points="1119.93,-495.12 1126.93,-492.67 1119.93,-490.22 1119.93,-495.12"/>
<text text-anchor="middle" x="1051.46" y="-527" font-family="Helvetica,sans-Serif" font-size="10.00">fresh snapshot</text>
</g>
<!-- run_cycle&#45;&gt;file_source -->
<g id="edge7" class="edge">
<title>run_cycle&#45;&gt;file_source</title>
<path fill="none" stroke="#475569" stroke-dasharray="5,2" d="M712.96,-627.98C712.96,-582.71 712.96,-472.33 712.96,-472.33 712.96,-472.33 1658.79,-472.33 1658.79,-472.33"/>
<polygon fill="#475569" stroke="#475569" points="1658.79,-474.78 1665.79,-472.33 1658.79,-469.88 1658.79,-474.78"/>
<text text-anchor="middle" x="1200.96" y="-189" font-family="Helvetica,sans-Serif" font-size="10.00">planning snapshot</text>
</g>
<!-- run_cycle&#45;&gt;ajna_source -->
<g id="edge8" class="edge">
<title>run_cycle&#45;&gt;ajna_source</title>
<path fill="none" stroke="#475569" d="M751.96,-627.89C751.96,-589.23 751.96,-505.33 751.96,-505.33 751.96,-505.33 1119.81,-505.33 1119.81,-505.33"/>
<polygon fill="#475569" stroke="#475569" points="1119.81,-507.78 1126.81,-505.33 1119.81,-502.88 1119.81,-507.78"/>
<text text-anchor="middle" x="912.96" y="-562" font-family="Helvetica,sans-Serif" font-size="10.00">live snapshot / recheck</text>
</g>
<!-- run_cycle&#45;&gt;recheck -->
<g id="edge16" class="edge">
<title>run_cycle&#45;&gt;recheck</title>
<path fill="none" stroke="#475569" d="M791.05,-640.67C824.68,-640.67 853.96,-640.67 853.96,-640.67 853.96,-640.67 853.96,-417.18 853.96,-417.18"/>
<polygon fill="#475569" stroke="#475569" points="856.41,-417.18 853.96,-410.18 851.51,-417.18 856.41,-417.18"/>
</g>
<!-- backend -->
<g id="node13" class="node">
<title>backend</title>
<path fill="#f8fafc" stroke="#334155" d="M956.96,-666C956.96,-666 868.96,-666 868.96,-666 862.96,-666 856.96,-660 856.96,-654 856.96,-654 856.96,-640 856.96,-640 856.96,-634 862.96,-628 868.96,-628 868.96,-628 956.96,-628 956.96,-628 962.96,-628 968.96,-634 968.96,-640 968.96,-640 968.96,-654 968.96,-654 968.96,-660 962.96,-666 956.96,-666"/>
<text text-anchor="middle" x="912.96" y="-650.2" font-family="Helvetica,sans-Serif" font-size="11.00">execute.ts</text>
<text text-anchor="middle" x="912.96" y="-638.2" font-family="Helvetica,sans-Serif" font-size="11.00">stepwise backend</text>
</g>
<!-- run_cycle&#45;&gt;backend -->
<g id="edge18" class="edge">
<title>run_cycle&#45;&gt;backend</title>
<path fill="none" stroke="#475569" d="M791.1,-653.33C791.1,-653.33 849.68,-653.33 849.68,-653.33"/>
<polygon fill="#475569" stroke="#475569" points="849.68,-655.78 856.68,-653.33 849.68,-650.88 849.68,-655.78"/>
</g>
<!-- result -->
<g id="node16" class="node">
<title>result</title>
<path fill="#f8fafc" stroke="#334155" d="M1871.96,-743C1871.96,-743 1705.96,-743 1705.96,-743 1699.96,-743 1693.96,-737 1693.96,-731 1693.96,-731 1693.96,-717 1693.96,-717 1693.96,-711 1699.96,-705 1705.96,-705 1705.96,-705 1871.96,-705 1871.96,-705 1877.96,-705 1883.96,-711 1883.96,-717 1883.96,-717 1883.96,-731 1883.96,-731 1883.96,-737 1877.96,-743 1871.96,-743"/>
<text text-anchor="middle" x="1788.96" y="-727.2" font-family="Helvetica,sans-Serif" font-size="11.00">CycleResult</text>
<text text-anchor="middle" x="1788.96" y="-715.2" font-family="Helvetica,sans-Serif" font-size="11.00">status + plan + capital + tx hashes</text>
</g>
<!-- run_cycle&#45;&gt;result -->
<g id="edge22" class="edge">
<title>run_cycle&#45;&gt;result</title>
<path fill="none" stroke="#475569" d="M692.96,-666.03C692.96,-688.84 692.96,-724 692.96,-724 692.96,-724 1686.61,-724 1686.61,-724"/>
<polygon fill="#475569" stroke="#475569" points="1686.61,-726.45 1693.61,-724 1686.61,-721.55 1686.61,-726.45"/>
<text text-anchor="middle" x="1200.96" y="-741" font-family="Helvetica,sans-Serif" font-size="10.00">plan + execution outcome</text>
</g>
<!-- backend&#45;&gt;ajna_source -->
<g id="edge25" class="edge">
<title>backend&#45;&gt;ajna_source</title>
<path fill="none" stroke="#475569" stroke-dasharray="5,2" d="M969.01,-640.67C1034.48,-640.67 1133.96,-640.67 1133.96,-640.67 1133.96,-640.67 1133.96,-525.11 1133.96,-525.11"/>
<polygon fill="#475569" stroke="#475569" points="1136.41,-525.11 1133.96,-518.11 1131.51,-525.11 1136.41,-525.11"/>
<text text-anchor="middle" x="1051.46" y="-633" font-family="Helvetica,sans-Serif" font-size="10.00">multi&#45;step</text>
<text text-anchor="middle" x="1051.46" y="-622" font-family="Helvetica,sans-Serif" font-size="10.00">re&#45;read + re&#45;plan</text>
</g>
<!-- ajna_executor -->
<g id="node14" class="node">
<title>ajna_executor</title>
<path fill="#f8fafc" stroke="#334155" d="M1249.96,-666C1249.96,-666 1151.96,-666 1151.96,-666 1145.96,-666 1139.96,-660 1139.96,-654 1139.96,-654 1139.96,-640 1139.96,-640 1139.96,-634 1145.96,-628 1151.96,-628 1151.96,-628 1249.96,-628 1249.96,-628 1255.96,-628 1261.96,-634 1261.96,-640 1261.96,-640 1261.96,-654 1261.96,-654 1261.96,-660 1255.96,-666 1249.96,-666"/>
<text text-anchor="middle" x="1200.96" y="-650.2" font-family="Helvetica,sans-Serif" font-size="11.00">ajna/executor.ts</text>
<text text-anchor="middle" x="1200.96" y="-638.2" font-family="Helvetica,sans-Serif" font-size="11.00">live Ajna tx handlers</text>
</g>
<!-- backend&#45;&gt;ajna_executor -->
<g id="edge19" class="edge">
<title>backend&#45;&gt;ajna_executor</title>
<path fill="none" stroke="#475569" d="M969.17,-653.33C969.17,-653.33 1132.91,-653.33 1132.91,-653.33"/>
<polygon fill="#475569" stroke="#475569" points="1132.91,-655.78 1139.91,-653.33 1132.91,-650.88 1132.91,-655.78"/>
</g>
<!-- contracts -->
<g id="node15" class="node">
<title>contracts</title>
<path fill="#f8fafc" stroke="#334155" d="M1498.96,-666C1498.96,-666 1355.96,-666 1355.96,-666 1349.96,-666 1343.96,-660 1343.96,-654 1343.96,-654 1343.96,-640 1343.96,-640 1343.96,-634 1349.96,-628 1355.96,-628 1355.96,-628 1498.96,-628 1498.96,-628 1504.96,-628 1510.96,-634 1510.96,-640 1510.96,-640 1510.96,-654 1510.96,-654 1510.96,-660 1504.96,-666 1498.96,-666"/>
<text text-anchor="middle" x="1427.46" y="-650.2" font-family="Helvetica,sans-Serif" font-size="11.00">Ajna pool + ERC20 contracts</text>
<text text-anchor="middle" x="1427.46" y="-638.2" font-family="Helvetica,sans-Serif" font-size="11.00">via viem</text>
</g>
<!-- ajna_executor&#45;&gt;contracts -->
<g id="edge20" class="edge">
<title>ajna_executor&#45;&gt;contracts</title>
<path fill="none" stroke="#475569" d="M1262.25,-647C1262.25,-647 1336.58,-647 1336.58,-647"/>
<polygon fill="#475569" stroke="#475569" points="1336.58,-649.45 1343.58,-647 1336.58,-644.55 1336.58,-649.45"/>
</g>
<!-- contracts&#45;&gt;result -->
<g id="edge21" class="edge">
<title>contracts&#45;&gt;result</title>
<path fill="none" stroke="#475569" d="M1511.19,-647C1590.63,-647 1697.96,-647 1697.96,-647 1697.96,-647 1697.96,-697.97 1697.96,-697.97"/>
<polygon fill="#475569" stroke="#475569" points="1695.51,-697.97 1697.96,-704.97 1700.41,-697.97 1695.51,-697.97"/>
<text text-anchor="middle" x="1593.46" y="-683" font-family="Helvetica,sans-Serif" font-size="10.00">receipts / final state</text>
</g>
<!-- log_jsonl -->
<g id="node17" class="node">
<title>log_jsonl</title>
<path fill="#f8fafc" stroke="#334155" d="M2118.96,-800C2118.96,-800 2041.96,-800 2041.96,-800 2035.96,-800 2029.96,-794 2029.96,-788 2029.96,-788 2029.96,-774 2029.96,-774 2029.96,-768 2035.96,-762 2041.96,-762 2041.96,-762 2118.96,-762 2118.96,-762 2124.96,-762 2130.96,-768 2130.96,-774 2130.96,-774 2130.96,-788 2130.96,-788 2130.96,-794 2124.96,-800 2118.96,-800"/>
<text text-anchor="middle" x="2080.46" y="-784.2" font-family="Helvetica,sans-Serif" font-size="11.00">log.ts</text>
<text text-anchor="middle" x="2080.46" y="-772.2" font-family="Helvetica,sans-Serif" font-size="11.00">JSONL append</text>
</g>
<!-- result&#45;&gt;log_jsonl -->
<g id="edge23" class="edge">
<title>result&#45;&gt;log_jsonl</title>
<path fill="none" stroke="#475569" d="M1884.16,-734.5C1969.37,-734.5 2080.96,-734.5 2080.96,-734.5 2080.96,-734.5 2080.96,-754.82 2080.96,-754.82"/>
<polygon fill="#475569" stroke="#475569" points="2078.51,-754.82 2080.96,-761.82 2083.41,-754.82 2078.51,-754.82"/>
</g>
<!-- responses -->
<g id="node18" class="node">
<title>responses</title>
<path fill="#f8fafc" stroke="#334155" d="M2165.46,-726C2165.46,-726 1995.46,-726 1995.46,-726 1989.46,-726 1983.46,-720 1983.46,-714 1983.46,-714 1983.46,-700 1983.46,-700 1983.46,-694 1989.46,-688 1995.46,-688 1995.46,-688 2165.46,-688 2165.46,-688 2171.46,-688 2177.46,-694 2177.46,-700 2177.46,-700 2177.46,-714 2177.46,-714 2177.46,-720 2171.46,-726 2165.46,-726"/>
<text text-anchor="middle" x="2080.46" y="-710.2" font-family="Helvetica,sans-Serif" font-size="11.00">CLI JSON / KeeperHub response /</text>
<text text-anchor="middle" x="2080.46" y="-698.2" font-family="Helvetica,sans-Serif" font-size="11.00">human summary</text>
</g>
<!-- result&#45;&gt;responses -->
<g id="edge24" class="edge">
<title>result&#45;&gt;responses</title>
<path fill="none" stroke="#475569" d="M1884,-715.5C1884,-715.5 1976.29,-715.5 1976.29,-715.5"/>
<polygon fill="#475569" stroke="#475569" points="1976.29,-717.95 1983.29,-715.5 1976.29,-713.05 1976.29,-717.95"/>
</g>
</g>
</svg>
