<?xml version="1.0" encoding="UTF-8" standalone="no"?>
<!DOCTYPE svg PUBLIC "-//W3C//DTD SVG 1.1//EN"
 "http://www.w3.org/Graphics/SVG/1.1/DTD/svg11.dtd">
<!-- Generated by graphviz version 2.43.0 (0)
 -->
<!-- Title: KeeperRunCycleSequence Pages: 1 -->
<svg width="2248pt" height="143pt"
 viewBox="0.00 0.00 2248.09 143.30" xmlns="http://www.w3.org/2000/svg" xmlns:xlink="http://www.w3.org/1999/xlink">
<g id="graph0" class="graph" transform="scale(1 1) rotate(0) translate(14.4 128.9)">
<title>KeeperRunCycleSequence</title>
<polygon fill="white" stroke="transparent" points="-14.4,14.4 -14.4,-128.9 2233.69,-128.9 2233.69,14.4 -14.4,14.4"/>
<!-- operator -->
<g id="node1" class="node">
<title>operator</title>
<ellipse fill="#fff7ed" stroke="#c2410c" cx="48.79" cy="-46" rx="48.58" ry="18.27"/>
<text text-anchor="middle" x="48.79" y="-43.2" font-family="Helvetica,sans-Serif" font-size="11.00">Operator</text>
</g>
<!-- entry -->
<g id="node2" class="node">
<title>entry</title>
<path fill="#f8fafc" stroke="#334155" d="M375.79,-64C375.79,-64 291.79,-64 291.79,-64 285.79,-64 279.79,-58 279.79,-52 279.79,-52 279.79,-40 279.79,-40 279.79,-34 285.79,-28 291.79,-28 291.79,-28 375.79,-28 375.79,-28 381.79,-28 387.79,-34 387.79,-40 387.79,-40 387.79,-52 387.79,-52 387.79,-58 381.79,-64 375.79,-64"/>
<text text-anchor="middle" x="333.79" y="-43.2" font-family="Helvetica,sans-Serif" font-size="11.00">CLI / KeeperHub</text>
</g>
<!-- operator&#45;&gt;entry -->
<g id="edge1" class="edge">
<title>operator&#45;&gt;entry</title>
<path fill="none" stroke="#475569" d="M95.21,-52C95.21,-52 272.6,-52 272.6,-52"/>
<polygon fill="#475569" stroke="#475569" points="272.6,-54.45 279.6,-52 272.6,-49.55 272.6,-54.45"/>
</g>
<!-- entry&#45;&gt;operator -->
<g id="edge17" class="edge">
<title>entry&#45;&gt;operator</title>
<path fill="none" stroke="#475569" d="M279.51,-40C279.51,-40 102.32,-40 102.32,-40"/>
<polygon fill="#475569" stroke="#475569" points="102.32,-37.55 95.32,-40 102.32,-42.45 102.32,-37.55"/>
</g>
<!-- snapshot -->
<g id="node3" class="node">
<title>snapshot</title>
<path fill="#f8fafc" stroke="#334155" d="M693.29,-65C693.29,-65 580.29,-65 580.29,-65 574.29,-65 568.29,-59 568.29,-53 568.29,-53 568.29,-39 568.29,-39 568.29,-33 574.29,-27 580.29,-27 580.29,-27 693.29,-27 693.29,-27 699.29,-27 705.29,-33 705.29,-39 705.29,-39 705.29,-53 705.29,-53 705.29,-59 699.29,-65 693.29,-65"/>
<text text-anchor="middle" x="636.79" y="-49.2" font-family="Helvetica,sans-Serif" font-size="11.00">core SnapshotSource /</text>
<text text-anchor="middle" x="636.79" y="-37.2" font-family="Helvetica,sans-Serif" font-size="11.00">ajna SnapshotSource</text>
</g>
<!-- entry&#45;&gt;snapshot -->
<g id="edge2" class="edge">
<title>entry&#45;&gt;snapshot</title>
<path fill="none" stroke="#475569" d="M387.96,-52C387.96,-52 561.2,-52 561.2,-52"/>
<polygon fill="#475569" stroke="#475569" points="561.2,-54.45 568.2,-52 561.2,-49.55 561.2,-54.45"/>
</g>
<!-- entry&#45;&gt;snapshot -->
<g id="edge8" class="edge">
<title>entry&#45;&gt;snapshot</title>
<path fill="none" stroke="#475569" stroke-dasharray="5,2" d="M387.96,-40C387.96,-40 561.2,-40 561.2,-40"/>
<polygon fill="#475569" stroke="#475569" points="561.2,-42.45 568.2,-40 561.2,-37.55 561.2,-42.45"/>
</g>
<!-- planner -->
<g id="node4" class="node">
<title>planner</title>
<path fill="#f8fafc" stroke="#334155" d="M933.79,-64C933.79,-64 869.79,-64 869.79,-64 863.79,-64 857.79,-58 857.79,-52 857.79,-52 857.79,-40 857.79,-40 857.79,-34 863.79,-28 869.79,-28 869.79,-28 933.79,-28 933.79,-28 939.79,-28 945.79,-34 945.79,-40 945.79,-40 945.79,-52 945.79,-52 945.79,-58 939.79,-64 933.79,-64"/>
<text text-anchor="middle" x="901.79" y="-43.2" font-family="Helvetica,sans-Serif" font-size="11.00">core Planner</text>
</g>
<!-- snapshot&#45;&gt;planner -->
<g id="edge5" class="edge">
<title>snapshot&#45;&gt;planner</title>
<path fill="none" stroke="#475569" d="M705.38,-52C705.38,-52 850.6,-52 850.6,-52"/>
<polygon fill="#475569" stroke="#475569" points="850.6,-54.45 857.6,-52 850.6,-49.55 850.6,-54.45"/>
</g>
<!-- snapshot&#45;&gt;planner -->
<g id="edge14" class="edge">
<title>snapshot&#45;&gt;planner</title>
<path fill="none" stroke="#475569" stroke-dasharray="5,2" d="M705.38,-40C705.38,-40 850.6,-40 850.6,-40"/>
<polygon fill="#475569" stroke="#475569" points="850.6,-42.45 857.6,-40 850.6,-37.55 850.6,-42.45"/>
</g>
<!-- policy -->
<g id="node5" class="node">
<title>policy</title>
<path fill="#f8fafc" stroke="#334155" d="M1701.29,-64C1701.29,-64 1646.29,-64 1646.29,-64 1640.29,-64 1634.29,-58 1634.29,-52 1634.29,-52 1634.29,-40 1634.29,-40 1634.29,-34 1640.29,-28 1646.29,-28 1646.29,-28 1701.29,-28 1701.29,-28 1707.29,-28 1713.29,-34 1713.29,-40 1713.29,-40 1713.29,-52 1713.29,-52 1713.29,-58 1707.29,-64 1701.29,-64"/>
<text text-anchor="middle" x="1673.79" y="-43.2" font-family="Helvetica,sans-Serif" font-size="11.00">core Policy</text>
</g>
<!-- snapshot&#45;&gt;policy -->
<g id="edge9" class="edge">
<title>snapshot&#45;&gt;policy</title>
<path fill="none" stroke="#475569" stroke-dasharray="5,2" d="M659.62,-26.86C659.62,-21.94 659.62,-18 659.62,-18 659.62,-18 1660.62,-18 1660.62,-18 1660.62,-18 1660.62,-20.79 1660.62,-20.79"/>
<polygon fill="#475569" stroke="#475569" points="1658.17,-20.79 1660.62,-27.79 1663.07,-20.79 1658.17,-20.79"/>
<text text-anchor="middle" x="1464.79" y="-93" font-family="Helvetica,sans-Serif" font-size="10.00">9. preSubmitRecheck()</text>
</g>
<!-- pool -->
<g id="node7" class="node">
<title>pool</title>
<path fill="#f8fafc" stroke="#334155" d="M2207.29,-64C2207.29,-64 2114.29,-64 2114.29,-64 2108.29,-64 2102.29,-58 2102.29,-52 2102.29,-52 2102.29,-40 2102.29,-40 2102.29,-34 2108.29,-28 2114.29,-28 2114.29,-28 2207.29,-28 2207.29,-28 2213.29,-28 2219.29,-34 2219.29,-40 2219.29,-40 2219.29,-52 2219.29,-52 2219.29,-58 2213.29,-64 2207.29,-64"/>
<text text-anchor="middle" x="2160.79" y="-43.2" font-family="Helvetica,sans-Serif" font-size="11.00">Ajna pool / ERC20</text>
</g>
<!-- snapshot&#45;&gt;pool -->
<g id="edge3" class="edge">
<title>snapshot&#45;&gt;pool</title>
<path fill="none" stroke="#475569" d="M659.62,-65.06C659.62,-75.37 659.62,-86 659.62,-86 659.62,-86 2180.29,-86 2180.29,-86 2180.29,-86 2180.29,-71.13 2180.29,-71.13"/>
<polygon fill="#475569" stroke="#475569" points="2182.74,-71.13 2180.29,-64.13 2177.84,-71.13 2182.74,-71.13"/>
<text text-anchor="middle" x="854.79" y="-93" font-family="Helvetica,sans-Serif" font-size="10.00">3. read pool + borrower state</text>
</g>
<!-- planner&#45;&gt;policy -->
<g id="edge6" class="edge">
<title>planner&#45;&gt;policy</title>
<path fill="none" stroke="#475569" d="M946.07,-46C946.07,-46 1626.91,-46 1626.91,-46"/>
<polygon fill="#475569" stroke="#475569" points="1626.91,-48.45 1633.91,-46 1626.91,-43.55 1626.91,-48.45"/>
</g>
<!-- executor -->
<g id="node6" class="node">
<title>executor</title>
<path fill="#f8fafc" stroke="#334155" d="M1989.29,-64C1989.29,-64 1872.29,-64 1872.29,-64 1866.29,-64 1860.29,-58 1860.29,-52 1860.29,-52 1860.29,-40 1860.29,-40 1860.29,-34 1866.29,-28 1872.29,-28 1872.29,-28 1989.29,-28 1989.29,-28 1995.29,-28 2001.29,-34 2001.29,-40 2001.29,-40 2001.29,-52 2001.29,-52 2001.29,-58 1995.29,-64 1989.29,-64"/>
<text text-anchor="middle" x="1930.79" y="-43.2" font-family="Helvetica,sans-Serif" font-size="11.00">core Execution backend</text>
</g>
<!-- planner&#45;&gt;executor -->
<g id="edge15" class="edge">
<title>planner&#45;&gt;executor</title>
<path fill="none" stroke="#475569" stroke-dasharray="5,2" d="M901.79,-64.06C901.79,-68.49 901.79,-72 901.79,-72 901.79,-72 1907.29,-72 1907.29,-72 1907.29,-72 1907.29,-71.06 1907.29,-71.06"/>
<polygon fill="#475569" stroke="#475569" points="1909.74,-71.06 1907.29,-64.06 1904.84,-71.06 1909.74,-71.06"/>
<text text-anchor="middle" x="1022.79" y="-93" font-family="Helvetica,sans-Serif" font-size="10.00">15. continue or abort</text>
</g>
<!-- policy&#45;&gt;entry -->
<g id="edge7" class="edge">
<title>policy&#45;&gt;entry</title>
<path fill="none" stroke="#475569" d="M1686.96,-27.93C1686.96,-18.54 1686.96,-9 1686.96,-9 1686.96,-9 333.79,-9 333.79,-9 333.79,-9 333.79,-20.93 333.79,-20.93"/>
<polygon fill="#475569" stroke="#475569" points="331.34,-20.93 333.79,-27.93 336.24,-20.93 331.34,-20.93"/>
<text text-anchor="middle" x="1561.79" y="-93" font-family="Helvetica,sans-Serif" font-size="10.00">7. validate or abort</text>
</g>
<!-- policy&#45;&gt;executor -->
<g id="edge10" class="edge">
<title>policy&#45;&gt;executor</title>
<path fill="none" stroke="#475569" d="M1713.38,-46C1713.38,-46 1853.08,-46 1853.08,-46"/>
<polygon fill="#475569" stroke="#475569" points="1853.08,-48.45 1860.08,-46 1853.08,-43.55 1853.08,-48.45"/>
</g>
<!-- executor&#45;&gt;entry -->
<g id="edge16" class="edge">
<title>executor&#45;&gt;entry</title>
<path fill="none" stroke="#475569" d="M1954.29,-64.04C1954.29,-77.29 1954.29,-93 1954.29,-93 1954.29,-93 333.79,-93 333.79,-93 333.79,-93 333.79,-71.04 333.79,-71.04"/>
<polygon fill="#475569" stroke="#475569" points="336.24,-71.04 333.79,-64.04 331.34,-71.04 336.24,-71.04"/>
<text text-anchor="middle" x="574.79" y="-93" font-family="Helvetica,sans-Serif" font-size="10.00">16. CycleResult</text>
</g>
<!-- executor&#45;&gt;snapshot -->
<g id="edge13" class="edge">
<title>executor&#45;&gt;snapshot</title>
<path fill="none" stroke="#475569" stroke-dasharray="5,2" d="M1930.79,-27.82C1930.79,-14.96 1930.79,0 1930.79,0 1930.79,0 613.96,0 613.96,0 613.96,0 613.96,-19.76 613.96,-19.76"/>
<polygon fill="#475569" stroke="#475569" points="611.51,-19.76 613.96,-26.76 616.41,-19.76 611.51,-19.76"/>
<text text-anchor="middle" x="1327.79" y="-93" font-family="Helvetica,sans-Serif" font-size="10.00">13. if multi&#45;step: fetch fresh snapshot</text>
</g>
<!-- executor&#45;&gt;pool -->
<g id="edge11" class="edge">
<title>executor&#45;&gt;pool</title>
<path fill="none" stroke="#475569" d="M2001.36,-52C2001.36,-52 2094.96,-52 2094.96,-52"/>
<polygon fill="#475569" stroke="#475569" points="2094.96,-54.45 2101.96,-52 2094.96,-49.55 2094.96,-54.45"/>
</g>
<!-- pool&#45;&gt;snapshot -->
<g id="edge4" class="edge">
<title>pool&#45;&gt;snapshot</title>
<path fill="none" stroke="#475569" d="M2141.29,-64.04C2141.29,-71.75 2141.29,-79 2141.29,-79 2141.29,-79 613.96,-79 613.96,-79 613.96,-79 613.96,-72.2 613.96,-72.2"/>
<polygon fill="#475569" stroke="#475569" points="616.41,-72.2 613.96,-65.2 611.51,-72.2 616.41,-72.2"/>
<text text-anchor="middle" x="1156.79" y="-93" font-family="Helvetica,sans-Serif" font-size="10.00">4. passive path + search + candidates</text>
</g>
<!-- pool&#45;&gt;executor -->
<g id="edge12" class="edge">
<title>pool&#45;&gt;executor</title>
<path fill="none" stroke="#475569" d="M2102.16,-40C2102.16,-40 2008.62,-40 2008.62,-40"/>
<polygon fill="#475569" stroke="#475569" points="2008.62,-37.55 2001.62,-40 2008.62,-42.45 2008.62,-37.55"/>
</g>
</g>
</svg>
