<?xml version="1.0" encoding="UTF-8" standalone="no"?>
<!DOCTYPE svg PUBLIC "-//W3C//DTD SVG 1.1//EN"
 "http://www.w3.org/Graphics/SVG/1.1/DTD/svg11.dtd">
<!-- Generated by graphviz version 2.43.0 (0)
 -->
<!-- Title: KeeperArchitecture Pages: 1 -->
<svg width="2609pt" height="881pt"
 viewBox="0.00 0.00 2608.76 880.80" xmlns="http://www.w3.org/2000/svg" xmlns:xlink="http://www.w3.org/1999/xlink">
<g id="graph0" class="graph" transform="scale(1 1) rotate(0) translate(14.4 866.4)">
<title>KeeperArchitecture</title>
<polygon fill="white" stroke="transparent" points="-14.4,14.4 -14.4,-866.4 2594.36,-866.4 2594.36,14.4 -14.4,14.4"/>
<g id="clust1" class="cluster">
<title>cluster_entry</title>
<path fill="white" stroke="#cbd5e1" d="M376.96,-13C376.96,-13 476.96,-13 476.96,-13 482.96,-13 488.96,-19 488.96,-25 488.96,-25 488.96,-152 488.96,-152 488.96,-158 482.96,-164 476.96,-164 476.96,-164 376.96,-164 376.96,-164 370.96,-164 364.96,-158 364.96,-152 364.96,-152 364.96,-25 364.96,-25 364.96,-19 370.96,-13 376.96,-13"/>
<text text-anchor="middle" x="426.96" y="-148.8" font-family="Helvetica,sans-Serif" font-size="14.00">Entry points</text>
</g>
<g id="clust2" class="cluster">
<title>cluster_snapshot</title>
<path fill="white" stroke="#cbd5e1" d="M1124.96,-449C1124.96,-449 2559.96,-449 2559.96,-449 2565.96,-449 2571.96,-455 2571.96,-461 2571.96,-461 2571.96,-600 2571.96,-600 2571.96,-606 2565.96,-612 2559.96,-612 2559.96,-612 1124.96,-612 1124.96,-612 1118.96,-612 1112.96,-606 1112.96,-600 1112.96,-600 1112.96,-461 1112.96,-461 1112.96,-455 1118.96,-449 1124.96,-449"/>
<text text-anchor="middle" x="1842.46" y="-596.8" font-family="Helvetica,sans-Serif" font-size="14.00">Snapshot layer</text>
</g>
<g id="clust3" class="cluster">
<title>cluster_decision</title>
<path fill="white" stroke="#cbd5e1" d="M853.96,-290C853.96,-290 1272.96,-290 1272.96,-290 1278.96,-290 1284.96,-296 1284.96,-302 1284.96,-302 1284.96,-429 1284.96,-429 1284.96,-435 1278.96,-441 1272.96,-441 1272.96,-441 853.96,-441 853.96,-441 847.96,-441 841.96,-435 841.96,-429 841.96,-429 841.96,-302 841.96,-302 841.96,-296 847.96,-290 853.96,-290"/>
<text text-anchor="middle" x="1063.46" y="-425.8" font-family="Helvetica,sans-Serif" font-size="14.00">Decision layer</text>
</g>
<g id="clust4" class="cluster">
<title>cluster_execution</title>
<path fill="white" stroke="#cbd5e1" d="M597.96,-620C597.96,-620 1610.96,-620 1610.96,-620 1616.96,-620 1622.96,-626 1622.96,-632 1622.96,-632 1622.96,-685 1622.96,-685 1622.96,-691 1616.96,-697 1610.96,-697 1610.96,-697 597.96,-697 597.96,-697 591.96,-697 585.96,-691 585.96,-685 585.96,-685 585.96,-632 585.96,-632 585.96,-626 591.96,-620 597.96,-620"/>
<text text-anchor="middle" x="1104.46" y="-681.8" font-family="Helvetica,sans-Serif" font-size="14.00">Execution layer</text>
</g>
<g id="clust5" class="cluster">
<title>cluster_outputs</title>
<path fill="white" stroke="#cbd5e1" d="M1784.46,-693C1784.46,-693 2255.96,-693 2255.96,-693 2261.96,-693 2267.96,-699 2267.96,-705 2267.96,-705 2267.96,-832 2267.96,-832 2267.96,-838 2261.96,-844 2255.96,-844 2255.96,-844 1784.46,-844 1784.46,-844 1778.46,-844 1772.46,-838 1772.46,-832 1772.46,-832 1772.46,-705 1772.46,-705 1772.46,-699 1778.46,-693 1784.46,-693"/>
<text text-anchor="middle" x="2020.21" y="-828.8" font-family="Helvetica,sans-Serif" font-size="14.00">Outputs</text>
</g>
<!-- operator -->
<g id="node1" class="node">
<title>operator</title>
<ellipse fill="#fff7ed" stroke="#c2410c" cx="156.98" cy="-76" rx="156.96" ry="26.74"/>
<text text-anchor="middle" x="156.98" y="-79.2" font-family="Helvetica,sans-Serif" font-size="11.00">Operator</text>
<text text-anchor="middle" x="156.98" y="-67.2" font-family="Helvetica,sans-Serif" font-size="11.00">config + env + optional payload/snapshot</text>
</g>
<!-- cli -->
<g id="node2" class="node">
<title>cli</title>
<path fill="#f8fafc" stroke="#334155" d="M468.96,-133C468.96,-133 384.96,-133 384.96,-133 378.96,-133 372.96,-127 372.96,-121 372.96,-121 372.96,-107 372.96,-107 372.96,-101 378.96,-95 384.96,-95 384.96,-95 468.96,-95 468.96,-95 474.96,-95 480.96,-101 480.96,-107 480.96,-107 480.96,-121 480.96,-121 480.96,-127 474.96,-133 468.96,-133"/>
<text text-anchor="middle" x="426.96" y="-117.2" font-family="Helvetica,sans-Serif" font-size="11.00">cli.ts</text>
<text text-anchor="middle" x="426.96" y="-105.2" font-family="Helvetica,sans-Serif" font-size="11.00">run / run&#45;payload</text>
</g>
<!-- operator&#45;&gt;cli -->
<g id="edge1" class="edge">
<title>operator&#45;&gt;cli</title>
<path fill="none" stroke="#475569" d="M239.08,-98.94C239.08,-98.94 365.94,-98.94 365.94,-98.94"/>
<polygon fill="#475569" stroke="#475569" points="365.95,-101.39 372.94,-98.94 365.94,-96.49 365.95,-101.39"/>
</g>
<!-- keeperhub -->
<g id="node3" class="node">
<title>keeperhub</title>
<path fill="#f8fafc" stroke="#334155" d="M466.96,-59C466.96,-59 386.96,-59 386.96,-59 380.96,-59 374.96,-53 374.96,-47 374.96,-47 374.96,-33 374.96,-33 374.96,-27 380.96,-21 386.96,-21 386.96,-21 466.96,-21 466.96,-21 472.96,-21 478.96,-27 478.96,-33 478.96,-33 478.96,-47 478.96,-47 478.96,-53 472.96,-59 466.96,-59"/>
<text text-anchor="middle" x="426.96" y="-43.2" font-family="Helvetica,sans-Serif" font-size="11.00">keeperhub.ts</text>
<text text-anchor="middle" x="426.96" y="-31.2" font-family="Helvetica,sans-Serif" font-size="11.00">payload adapter</text>
</g>
<!-- operator&#45;&gt;keeperhub -->
<g id="edge2" class="edge">
<title>operator&#45;&gt;keeperhub</title>
<path fill="none" stroke="#475569" d="M248,-54.06C248,-54.06 367.87,-54.06 367.87,-54.06"/>
<polygon fill="#475569" stroke="#475569" points="367.87,-56.52 374.87,-54.06 367.87,-51.62 367.87,-56.52"/>
</g>
<!-- file_source -->
<g id="node4" class="node">
<title>file_source</title>
<path fill="#f8fafc" stroke="#334155" d="M2273.96,-507C2273.96,-507 2051.96,-507 2051.96,-507 2045.96,-507 2039.96,-501 2039.96,-495 2039.96,-495 2039.96,-469 2039.96,-469 2039.96,-463 2045.96,-457 2051.96,-457 2051.96,-457 2273.96,-457 2273.96,-457 2279.96,-457 2285.96,-463 2285.96,-469 2285.96,-469 2285.96,-495 2285.96,-495 2285.96,-501 2279.96,-507 2273.96,-507"/>
<text text-anchor="middle" x="2162.96" y="-491.2" font-family="Helvetica,sans-Serif" font-size="11.00">core/snapshot/file.ts</text>
<text text-anchor="middle" x="2162.96" y="-479.2" font-family="Helvetica,sans-Serif" font-size="11.00">FileSnapshotSource / StaticSnapshotSource /</text>
<text text-anchor="middle" x="2162.96" y="-467.2" font-family="Helvetica,sans-Serif" font-size="11.00">PayloadThenLiveSnapshotSource</text>
</g>
<!-- cli&#45;&gt;file_source -->
<g id="edge5" class="edge">
<title>cli&#45;&gt;file_source</title>
<path fill="none" stroke="#475569" d="M444.96,-133.1C444.96,-206.28 444.96,-464.67 444.96,-464.67 444.96,-464.67 2032.75,-464.67 2032.75,-464.67"/>
<polygon fill="#475569" stroke="#475569" points="2032.75,-467.12 2039.75,-464.67 2032.75,-462.22 2032.75,-467.12"/>
<text text-anchor="middle" x="1210.96" y="-98" font-family="Helvetica,sans-Serif" font-size="10.00">optional file snapshot</text>
</g>
<!-- run_cycle -->
<g id="node13" class="node">
<title>run_cycle</title>
<path fill="#f8fafc" stroke="#334155" d="M778.96,-666C778.96,-666 605.96,-666 605.96,-666 599.96,-666 593.96,-660 593.96,-654 593.96,-654 593.96,-640 593.96,-640 593.96,-634 599.96,-628 605.96,-628 605.96,-628 778.96,-628 778.96,-628 784.96,-628 790.96,-634 790.96,-640 790.96,-640 790.96,-654 790.96,-654 790.96,-660 784.96,-666 778.96,-666"/>
<text text-anchor="middle" x="692.46" y="-650.2" font-family="Helvetica,sans-Serif" font-size="11.00">core/cycle/run&#45;cycle.ts</text>
<text text-anchor="middle" x="692.46" y="-638.2" font-family="Helvetica,sans-Serif" font-size="11.00">orchestrate plan / recheck / execute</text>
</g>
<!-- cli&#45;&gt;run_cycle -->
<g id="edge3" class="edge">
<title>cli&#45;&gt;run_cycle</title>
<path fill="none" stroke="#475569" d="M408.96,-133.28C408.96,-228.84 408.96,-647 408.96,-647 408.96,-647 586.7,-647 586.7,-647"/>
<polygon fill="#475569" stroke="#475569" points="586.7,-649.45 593.7,-647 586.7,-644.55 586.7,-649.45"/>
<text text-anchor="middle" x="537.46" y="-404" font-family="Helvetica,sans-Serif" font-size="10.00">invoke cycle</text>
</g>
<!-- keeperhub&#45;&gt;file_source -->
<g id="edge6" class="edge">
<title>keeperhub&#45;&gt;file_source</title>
<path fill="none" stroke="#475569" d="M479.38,-33.67C769.28,-33.67 2162.96,-33.67 2162.96,-33.67 2162.96,-33.67 2162.96,-449.93 2162.96,-449.93"/>
<polygon fill="#475569" stroke="#475569" points="2160.51,-449.93 2162.96,-456.93 2165.41,-449.94 2160.51,-449.93"/>
<text text-anchor="middle" x="1210.96" y="-3" font-family="Helvetica,sans-Serif" font-size="10.00">payload snapshot</text>
</g>
<!-- keeperhub&#45;&gt;run_cycle -->
<g id="edge4" class="edge">
<title>keeperhub&#45;&gt;run_cycle</title>
<path fill="none" stroke="#475569" d="M478.98,-46.33C538.24,-46.33 626.96,-46.33 626.96,-46.33 626.96,-46.33 626.96,-620.7 626.96,-620.7"/>
<polygon fill="#475569" stroke="#475569" points="624.51,-620.7 626.96,-627.7 629.41,-620.7 624.51,-620.7"/>
<text text-anchor="middle" x="537.46" y="-63" font-family="Helvetica,sans-Serif" font-size="10.00">invoke cycle</text>
</g>
<!-- pool_snapshot -->
<g id="node9" class="node">
<title>pool_snapshot</title>
<path fill="#f8fafc" stroke="#334155" d="M2551.96,-581C2551.96,-581 2356.96,-581 2356.96,-581 2350.96,-581 2344.96,-575 2344.96,-569 2344.96,-569 2344.96,-555 2344.96,-555 2344.96,-549 2350.96,-543 2356.96,-543 2356.96,-543 2551.96,-543 2551.96,-543 2557.96,-543 2563.96,-549 2563.96,-555 2563.96,-555 2563.96,-569 2563.96,-569 2563.96,-575 2557.96,-581 2551.96,-581"/>
<text text-anchor="middle" x="2454.46" y="-565.2" font-family="Helvetica,sans-Serif" font-size="11.00">PoolSnapshot</text>
<text text-anchor="middle" x="2454.46" y="-553.2" font-family="Helvetica,sans-Serif" font-size="11.00">current rate + passive path + candidates</text>
</g>
<!-- file_source&#45;&gt;pool_snapshot -->
<g id="edge13" class="edge">
<title>file_source&#45;&gt;pool_snapshot</title>
<path fill="none" stroke="#475569" d="M2274.96,-507.35C2274.96,-528.66 2274.96,-555.67 2274.96,-555.67 2274.96,-555.67 2337.87,-555.67 2337.87,-555.67"/>
<polygon fill="#475569" stroke="#475569" points="2337.87,-558.12 2344.87,-555.67 2337.87,-553.22 2337.87,-558.12"/>
</g>
<!-- ajna_source -->
<g id="node5" class="node">
<title>ajna_source</title>
<path fill="#f8fafc" stroke="#334155" d="M1288.96,-518C1288.96,-518 1132.96,-518 1132.96,-518 1126.96,-518 1120.96,-512 1120.96,-506 1120.96,-506 1120.96,-492 1120.96,-492 1120.96,-486 1126.96,-480 1132.96,-480 1132.96,-480 1288.96,-480 1288.96,-480 1294.96,-480 1300.96,-486 1300.96,-492 1300.96,-492 1300.96,-506 1300.96,-506 1300.96,-512 1294.96,-518 1288.96,-518"/>
<text text-anchor="middle" x="1210.96" y="-502.2" font-family="Helvetica,sans-Serif" font-size="11.00">ajna/adapter/snapshot&#45;source.ts</text>
<text text-anchor="middle" x="1210.96" y="-490.2" font-family="Helvetica,sans-Serif" font-size="11.00">AjnaRpcSnapshotSource</text>
</g>
<!-- ajna_reads -->
<g id="node6" class="node">
<title>ajna_reads</title>
<path fill="#f8fafc" stroke="#334155" d="M1612.96,-518C1612.96,-518 1449.96,-518 1449.96,-518 1443.96,-518 1437.96,-512 1437.96,-506 1437.96,-506 1437.96,-492 1437.96,-492 1437.96,-486 1443.96,-480 1449.96,-480 1449.96,-480 1612.96,-480 1612.96,-480 1618.96,-480 1624.96,-486 1624.96,-492 1624.96,-492 1624.96,-506 1624.96,-506 1624.96,-512 1618.96,-518 1612.96,-518"/>
<text text-anchor="middle" x="1531.46" y="-502.2" font-family="Helvetica,sans-Serif" font-size="11.00">ajna/read/*</text>
<text text-anchor="middle" x="1531.46" y="-490.2" font-family="Helvetica,sans-Serif" font-size="11.00">block&#45;pinned pool + account state</text>
</g>
<!-- ajna_source&#45;&gt;ajna_reads -->
<g id="edge9" class="edge">
<title>ajna_source&#45;&gt;ajna_reads</title>
<path fill="none" stroke="#475569" d="M1301.09,-499C1301.09,-499 1430.82,-499 1430.82,-499"/>
<polygon fill="#475569" stroke="#475569" points="1430.82,-501.45 1437.82,-499 1430.82,-496.55 1430.82,-501.45"/>
</g>
<!-- search_space -->
<g id="node7" class="node">
<title>search_space</title>
<path fill="#f8fafc" stroke="#334155" d="M1968.96,-532C1968.96,-532 1781.96,-532 1781.96,-532 1775.96,-532 1769.96,-526 1769.96,-520 1769.96,-520 1769.96,-506 1769.96,-506 1769.96,-500 1775.96,-494 1781.96,-494 1781.96,-494 1968.96,-494 1968.96,-494 1974.96,-494 1980.96,-500 1980.96,-506 1980.96,-506 1980.96,-520 1980.96,-520 1980.96,-526 1974.96,-532 1968.96,-532"/>
<text text-anchor="middle" x="1875.46" y="-516.2" font-family="Helvetica,sans-Serif" font-size="11.00">ajna/search/*</text>
<text text-anchor="middle" x="1875.46" y="-504.2" font-family="Helvetica,sans-Serif" font-size="11.00">bounded bucket / amount / limit search</text>
</g>
<!-- ajna_reads&#45;&gt;search_space -->
<g id="edge10" class="edge">
<title>ajna_reads&#45;&gt;search_space</title>
<path fill="none" stroke="#475569" d="M1625,-506C1625,-506 1762.79,-506 1762.79,-506"/>
<polygon fill="#475569" stroke="#475569" points="1762.79,-508.45 1769.79,-506 1762.79,-503.55 1762.79,-508.45"/>
</g>
<!-- synthesis -->
<g id="node8" class="node">
<title>synthesis</title>
<path fill="#f8fafc" stroke="#334155" d="M2250.96,-581C2250.96,-581 2074.96,-581 2074.96,-581 2068.96,-581 2062.96,-575 2062.96,-569 2062.96,-569 2062.96,-555 2062.96,-555 2062.96,-549 2068.96,-543 2074.96,-543 2074.96,-543 2250.96,-543 2250.96,-543 2256.96,-543 2262.96,-549 2262.96,-555 2262.96,-555 2262.96,-569 2262.96,-569 2262.96,-575 2256.96,-581 2250.96,-581"/>
<text text-anchor="middle" x="2162.96" y="-565.2" font-family="Helvetica,sans-Serif" font-size="11.00">ajna/synthesize/*</text>
<text text-anchor="middle" x="2162.96" y="-553.2" font-family="Helvetica,sans-Serif" font-size="11.00">exact + heuristic lend / borrow / dual</text>
</g>
<!-- search_space&#45;&gt;synthesis -->
<g id="edge11" class="edge">
<title>search_space&#45;&gt;synthesis</title>
<path fill="none" stroke="#475569" d="M1975.96,-532.08C1975.96,-545.84 1975.96,-562 1975.96,-562 1975.96,-562 2055.89,-562 2055.89,-562"/>
<polygon fill="#475569" stroke="#475569" points="2055.89,-564.45 2062.89,-562 2055.89,-559.55 2055.89,-564.45"/>
</g>
<!-- synthesis&#45;&gt;pool_snapshot -->
<g id="edge12" class="edge">
<title>synthesis&#45;&gt;pool_snapshot</title>
<path fill="none" stroke="#475569" d="M2263.27,-568.33C2263.27,-568.33 2337.73,-568.33 2337.73,-568.33"/>
<polygon fill="#475569" stroke="#475569" points="2337.73,-570.78 2344.73,-568.33 2337.73,-565.88 2337.73,-570.78"/>
</g>
<!-- planner -->
<g id="node10" class="node">
<title>planner</title>
<path fill="#f8fafc" stroke="#334155" d="M978.96,-336C978.96,-336 861.96,-336 861.96,-336 855.96,-336 849.96,-330 849.96,-324 849.96,-324 849.96,-310 849.96,-310 849.96,-304 855.96,-298 861.96,-298 861.96,-298 978.96,-298 978.96,-298 984.96,-298 990.96,-304 990.96,-310 990.96,-310 990.96,-324 990.96,-324 990.96,-330 984.96,-336 978.96,-336"/>
<text text-anchor="middle" x="920.46" y="-320.2" font-family="Helvetica,sans-Serif" font-size="11.00">core/planning/planner.ts</text>
<text text-anchor="middle" x="920.46" y="-308.2" font-family="Helvetica,sans-Serif" font-size="11.00">planCycle()</text>
</g>
<!-- pool_snapshot&#45;&gt;planner -->
<g id="edge14" class="edge">
<title>pool_snapshot&#45;&gt;planner</title>
<path fill="none" stroke="#475569" d="M2454.96,-542.63C2454.96,-489.95 2454.96,-348 2454.96,-348 2454.96,-348 920.96,-348 920.96,-348 920.96,-348 920.96,-343.1 920.96,-343.1"/>
<polygon fill="#475569" stroke="#475569" points="923.41,-343.1 920.96,-336.1 918.51,-343.1 923.41,-343.1"/>
</g>
<!-- policy -->
<g id="node11" class="node">
<title>policy</title>
<path fill="#f8fafc" stroke="#334155" d="M1264.96,-336C1264.96,-336 1156.96,-336 1156.96,-336 1150.96,-336 1144.96,-330 1144.96,-324 1144.96,-324 1144.96,-310 1144.96,-310 1144.96,-304 1150.96,-298 1156.96,-298 1156.96,-298 1264.96,-298 1264.96,-298 1270.96,-298 1276.96,-304 1276.96,-310 1276.96,-310 1276.96,-324 1276.96,-324 1276.96,-330 1270.96,-336 1264.96,-336"/>
<text text-anchor="middle" x="1210.96" y="-320.2" font-family="Helvetica,sans-Serif" font-size="11.00">core/planning/policy.ts</text>
<text text-anchor="middle" x="1210.96" y="-308.2" font-family="Helvetica,sans-Serif" font-size="11.00">validatePlan()</text>
</g>
<!-- planner&#45;&gt;policy -->
<g id="edge15" class="edge">
<title>planner&#45;&gt;policy</title>
<path fill="none" stroke="#475569" d="M991.15,-317C991.15,-317 1137.94,-317 1137.94,-317"/>
<polygon fill="#475569" stroke="#475569" points="1137.94,-319.45 1144.94,-317 1137.93,-314.55 1137.94,-319.45"/>
</g>
<!-- policy&#45;&gt;run_cycle -->
<g id="edge16" class="edge">
<title>policy&#45;&gt;run_cycle</title>
<path fill="none" stroke="#475569" d="M1210.96,-336.24C1210.96,-347.69 1210.96,-360 1210.96,-360 1210.96,-360 659.96,-360 659.96,-360 659.96,-360 659.96,-620.72 659.96,-620.72"/>
<polygon fill="#475569" stroke="#475569" points="657.51,-620.72 659.96,-627.72 662.41,-620.72 657.51,-620.72"/>
</g>
<!-- recheck -->
<g id="node12" class="node">
<title>recheck</title>
<path fill="#f8fafc" stroke="#334155" d="M974.46,-410C974.46,-410 866.46,-410 866.46,-410 860.46,-410 854.46,-404 854.46,-398 854.46,-398 854.46,-384 854.46,-384 854.46,-378 860.46,-372 866.46,-372 866.46,-372 974.46,-372 974.46,-372 980.46,-372 986.46,-378 986.46,-384 986.46,-384 986.46,-398 986.46,-398 986.46,-404 980.46,-410 974.46,-410"/>
<text text-anchor="middle" x="920.46" y="-394.2" font-family="Helvetica,sans-Serif" font-size="11.00">core/planning/policy.ts</text>
<text text-anchor="middle" x="920.46" y="-382.2" font-family="Helvetica,sans-Serif" font-size="11.00">preSubmitRecheck()</text>
</g>
<!-- recheck&#45;&gt;ajna_source -->
<g id="edge18" class="edge">
<title>recheck&#45;&gt;ajna_source</title>
<path fill="none" stroke="#475569" d="M986.53,-391C1048.91,-391 1132.96,-391 1132.96,-391 1132.96,-391 1132.96,-472.94 1132.96,-472.94"/>
<polygon fill="#475569" stroke="#475569" points="1130.51,-472.94 1132.96,-479.94 1135.41,-472.94 1130.51,-472.94"/>
<text text-anchor="middle" x="1055.96" y="-438" font-family="Helvetica,sans-Serif" font-size="10.00">fresh snapshot</text>
</g>
<!-- run_cycle&#45;&gt;file_source -->
<g id="edge7" class="edge">
<title>run_cycle&#45;&gt;file_source</title>
<path fill="none" stroke="#475569" stroke-dasharray="5,2" d="M725.96,-627.98C725.96,-582.71 725.96,-472.33 725.96,-472.33 725.96,-472.33 2032.82,-472.33 2032.82,-472.33"/>
<polygon fill="#475569" stroke="#475569" points="2032.82,-474.78 2039.82,-472.33 2032.82,-469.88 2032.82,-474.78"/>
<text text-anchor="middle" x="1369.46" y="-172" font-family="Helvetica,sans-Serif" font-size="10.00">planning snapshot</text>
</g>
<!-- run_cycle&#45;&gt;ajna_source -->
<g id="edge8" class="edge">
<title>run_cycle&#45;&gt;ajna_source</title>
<path fill="none" stroke="#475569" d="M758.96,-627.95C758.96,-587.98 758.96,-499 758.96,-499 758.96,-499 1113.84,-499 1113.84,-499"/>
<polygon fill="#475569" stroke="#475569" points="1113.84,-501.45 1120.84,-499 1113.84,-496.55 1113.84,-501.45"/>
<text text-anchor="middle" x="920.46" y="-518" font-family="Helvetica,sans-Serif" font-size="10.00">live snapshot / recheck</text>
</g>
<!-- run_cycle&#45;&gt;recheck -->
<g id="edge17" class="edge">
<title>run_cycle&#45;&gt;recheck</title>
<path fill="none" stroke="#475569" d="M692.96,-627.76C692.96,-568.22 692.96,-391 692.96,-391 692.96,-391 847.35,-391 847.35,-391"/>
<polygon fill="#475569" stroke="#475569" points="847.35,-393.45 854.35,-391 847.35,-388.55 847.35,-393.45"/>
</g>
<!-- backend -->
<g id="node14" class="node">
<title>backend</title>
<path fill="#f8fafc" stroke="#334155" d="M971.46,-666C971.46,-666 869.46,-666 869.46,-666 863.46,-666 857.46,-660 857.46,-654 857.46,-654 857.46,-640 857.46,-640 857.46,-634 863.46,-628 869.46,-628 869.46,-628 971.46,-628 971.46,-628 977.46,-628 983.46,-634 983.46,-640 983.46,-640 983.46,-654 983.46,-654 983.46,-660 977.46,-666 971.46,-666"/>
<text text-anchor="middle" x="920.46" y="-650.2" font-family="Helvetica,sans-Serif" font-size="11.00">core/cycle/execute.ts</text>
<text text-anchor="middle" x="920.46" y="-638.2" font-family="Helvetica,sans-Serif" font-size="11.00">stepwise backend</text>
</g>
<!-- run_cycle&#45;&gt;backend -->
<g id="edge19" class="edge">
<title>run_cycle&#45;&gt;backend</title>
<path fill="none" stroke="#475569" d="M791.13,-647C791.13,-647 850.16,-647 850.16,-647"/>
<polygon fill="#475569" stroke="#475569" points="850.16,-649.45 857.16,-647 850.16,-644.55 850.16,-649.45"/>
</g>
<!-- result -->
<g id="node17" class="node">
<title>result</title>
<path fill="#f8fafc" stroke="#334155" d="M1958.46,-752C1958.46,-752 1792.46,-752 1792.46,-752 1786.46,-752 1780.46,-746 1780.46,-740 1780.46,-740 1780.46,-726 1780.46,-726 1780.46,-720 1786.46,-714 1792.46,-714 1792.46,-714 1958.46,-714 1958.46,-714 1964.46,-714 1970.46,-720 1970.46,-726 1970.46,-726 1970.46,-740 1970.46,-740 1970.46,-746 1964.46,-752 1958.46,-752"/>
<text text-anchor="middle" x="1875.46" y="-736.2" font-family="Helvetica,sans-Serif" font-size="11.00">CycleResult</text>
<text text-anchor="middle" x="1875.46" y="-724.2" font-family="Helvetica,sans-Serif" font-size="11.00">status + plan + capital + tx hashes</text>
</g>
<!-- run_cycle&#45;&gt;result -->
<g id="edge23" class="edge">
<title>run_cycle&#45;&gt;result</title>
<path fill="none" stroke="#475569" d="M692.96,-666.13C692.96,-693.18 692.96,-739.33 692.96,-739.33 692.96,-739.33 1773.19,-739.33 1773.19,-739.33"/>
<polygon fill="#475569" stroke="#475569" points="1773.19,-741.78 1780.19,-739.33 1773.19,-736.88 1773.19,-741.78"/>
<text text-anchor="middle" x="1210.96" y="-741" font-family="Helvetica,sans-Serif" font-size="10.00">plan + execution outcome</text>
</g>
<!-- backend&#45;&gt;ajna_source -->
<g id="edge26" class="edge">
<title>backend&#45;&gt;ajna_source</title>
<path fill="none" stroke="#475569" stroke-dasharray="5,2" d="M983.61,-640.67C1045.62,-640.67 1130.96,-640.67 1130.96,-640.67 1130.96,-640.67 1130.96,-525.11 1130.96,-525.11"/>
<polygon fill="#475569" stroke="#475569" points="1133.41,-525.11 1130.96,-518.11 1128.51,-525.11 1133.41,-525.11"/>
<text text-anchor="middle" x="1055.96" y="-647" font-family="Helvetica,sans-Serif" font-size="10.00">multi&#45;step</text>
<text text-anchor="middle" x="1055.96" y="-636" font-family="Helvetica,sans-Serif" font-size="10.00">re&#45;read + re&#45;plan</text>
</g>
<!-- ajna_executor -->
<g id="node15" class="node">
<title>ajna_executor</title>
<path fill="#f8fafc" stroke="#334155" d="M1269.46,-666C1269.46,-666 1152.46,-666 1152.46,-666 1146.46,-666 1140.46,-660 1140.46,-654 1140.46,-654 1140.46,-640 1140.46,-640 1140.46,-634 1146.46,-628 1152.46,-628 1152.46,-628 1269.46,-628 1269.46,-628 1275.46,-628 1281.46,-634 1281.46,-640 1281.46,-640 1281.46,-654 1281.46,-654 1281.46,-660 1275.46,-666 1269.46,-666"/>
<text text-anchor="middle" x="1210.96" y="-650.2" font-family="Helvetica,sans-Serif" font-size="11.00">ajna/adapter/executor.ts</text>
<text text-anchor="middle" x="1210.96" y="-638.2" font-family="Helvetica,sans-Serif" font-size="11.00">live Ajna tx handlers</text>
</g>
<!-- backend&#45;&gt;ajna_executor -->
<g id="edge20" class="edge">
<title>backend&#45;&gt;ajna_executor</title>
<path fill="none" stroke="#475569" d="M983.49,-653.33C983.49,-653.33 1133.4,-653.33 1133.4,-653.33"/>
<polygon fill="#475569" stroke="#475569" points="1133.4,-655.78 1140.4,-653.33 1133.4,-650.88 1133.4,-655.78"/>
</g>
<!-- contracts -->
<g id="node16" class="node">
<title>contracts</title>
<path fill="#f8fafc" stroke="#334155" d="M1602.96,-666C1602.96,-666 1459.96,-666 1459.96,-666 1453.96,-666 1447.96,-660 1447.96,-654 1447.96,-654 1447.96,-640 1447.96,-640 1447.96,-634 1453.96,-628 1459.96,-628 1459.96,-628 1602.96,-628 1602.96,-628 1608.96,-628 1614.96,-634 1614.96,-640 1614.96,-640 1614.96,-654 1614.96,-654 1614.96,-660 1608.96,-666 1602.96,-666"/>
<text text-anchor="middle" x="1531.46" y="-650.2" font-family="Helvetica,sans-Serif" font-size="11.00">Ajna pool + ERC20 contracts</text>
<text text-anchor="middle" x="1531.46" y="-638.2" font-family="Helvetica,sans-Serif" font-size="11.00">via viem</text>
</g>
<!-- ajna_executor&#45;&gt;contracts -->
<g id="edge21" class="edge">
<title>ajna_executor&#45;&gt;contracts</title>
<path fill="none" stroke="#475569" d="M1281.69,-647C1281.69,-647 1440.84,-647 1440.84,-647"/>
<polygon fill="#475569" stroke="#475569" points="1440.84,-649.45 1447.84,-647 1440.84,-644.55 1440.84,-649.45"/>
</g>
<!-- contracts&#45;&gt;result -->
<g id="edge22" class="edge">
<title>contracts&#45;&gt;result</title>
<path fill="none" stroke="#475569" d="M1531.96,-666.29C1531.96,-689.86 1531.96,-726.67 1531.96,-726.67 1531.96,-726.67 1773.23,-726.67 1773.23,-726.67"/>
<polygon fill="#475569" stroke="#475569" points="1773.23,-729.12 1780.23,-726.67 1773.23,-724.22 1773.23,-729.12"/>
<text text-anchor="middle" x="1697.46" y="-683" font-family="Helvetica,sans-Serif" font-size="10.00">receipts / final state</text>
</g>
<!-- log_jsonl -->
<g id="node18" class="node">
<title>log_jsonl</title>
<path fill="#f8fafc" stroke="#334155" d="M2208.46,-739C2208.46,-739 2117.46,-739 2117.46,-739 2111.46,-739 2105.46,-733 2105.46,-727 2105.46,-727 2105.46,-713 2105.46,-713 2105.46,-707 2111.46,-701 2117.46,-701 2117.46,-701 2208.46,-701 2208.46,-701 2214.46,-701 2220.46,-707 2220.46,-713 2220.46,-713 2220.46,-727 2220.46,-727 2220.46,-733 2214.46,-739 2208.46,-739"/>
<text text-anchor="middle" x="2162.96" y="-723.2" font-family="Helvetica,sans-Serif" font-size="11.00">core/support/log.ts</text>
<text text-anchor="middle" x="2162.96" y="-711.2" font-family="Helvetica,sans-Serif" font-size="11.00">JSONL append</text>
</g>
<!-- result&#45;&gt;log_jsonl -->
<g id="edge24" class="edge">
<title>result&#45;&gt;log_jsonl</title>
<path fill="none" stroke="#475569" d="M1970.79,-726.5C1970.79,-726.5 2098.18,-726.5 2098.18,-726.5"/>
<polygon fill="#475569" stroke="#475569" points="2098.18,-728.95 2105.18,-726.5 2098.18,-724.05 2098.18,-728.95"/>
</g>
<!-- responses -->
<g id="node19" class="node">
<title>responses</title>
<path fill="#f8fafc" stroke="#334155" d="M2247.96,-813C2247.96,-813 2077.96,-813 2077.96,-813 2071.96,-813 2065.96,-807 2065.96,-801 2065.96,-801 2065.96,-787 2065.96,-787 2065.96,-781 2071.96,-775 2077.96,-775 2077.96,-775 2247.96,-775 2247.96,-775 2253.96,-775 2259.96,-781 2259.96,-787 2259.96,-787 2259.96,-801 2259.96,-801 2259.96,-807 2253.96,-813 2247.96,-813"/>
<text text-anchor="middle" x="2162.96" y="-797.2" font-family="Helvetica,sans-Serif" font-size="11.00">CLI JSON / KeeperHub response /</text>
<text text-anchor="middle" x="2162.96" y="-785.2" font-family="Helvetica,sans-Serif" font-size="11.00">human summary</text>
</g>
<!-- result&#45;&gt;responses -->
<g id="edge25" class="edge">
<title>result&#45;&gt;responses</title>
<path fill="none" stroke="#475569" d="M1970.54,-745.5C2026.33,-745.5 2085.96,-745.5 2085.96,-745.5 2085.96,-745.5 2085.96,-767.83 2085.96,-767.83"/>
<polygon fill="#475569" stroke="#475569" points="2083.51,-767.83 2085.96,-774.83 2088.41,-767.83 2083.51,-767.83"/>
</g>
</g>
</svg>
