<?xml version="1.0" encoding="UTF-8" standalone="no"?>
<!DOCTYPE svg PUBLIC "-//W3C//DTD SVG 1.1//EN"
 "http://www.w3.org/Graphics/SVG/1.1/DTD/svg11.dtd">
<!-- Generated by graphviz version 2.43.0 (0)
 -->
<!-- Title: KeeperRunCycleSequence Pages: 1 -->
<svg width="2105pt" height="142pt"
 viewBox="0.00 0.00 2105.09 142.45" xmlns="http://www.w3.org/2000/svg" xmlns:xlink="http://www.w3.org/1999/xlink">
<g id="graph0" class="graph" transform="scale(1 1) rotate(0) translate(14.4 128.05)">
<title>KeeperRunCycleSequence</title>
<polygon fill="white" stroke="transparent" points="-14.4,14.4 -14.4,-128.05 2090.69,-128.05 2090.69,14.4 -14.4,14.4"/>
<!-- operator -->
<g id="node1" class="node">
<title>operator</title>
<ellipse fill="#fff7ed" stroke="#c2410c" cx="48.79" cy="-46.38" rx="48.58" ry="18.27"/>
<text text-anchor="middle" x="48.79" y="-43.58" font-family="Helvetica,sans-Serif" font-size="11.00">Operator</text>
</g>
<!-- entry -->
<g id="node2" class="node">
<title>entry</title>
<path fill="#f8fafc" stroke="#334155" d="M375.79,-64.38C375.79,-64.38 291.79,-64.38 291.79,-64.38 285.79,-64.38 279.79,-58.38 279.79,-52.38 279.79,-52.38 279.79,-40.38 279.79,-40.38 279.79,-34.38 285.79,-28.38 291.79,-28.38 291.79,-28.38 375.79,-28.38 375.79,-28.38 381.79,-28.38 387.79,-34.38 387.79,-40.38 387.79,-40.38 387.79,-52.38 387.79,-52.38 387.79,-58.38 381.79,-64.38 375.79,-64.38"/>
<text text-anchor="middle" x="333.79" y="-43.58" font-family="Helvetica,sans-Serif" font-size="11.00">CLI / KeeperHub</text>
</g>
<!-- operator&#45;&gt;entry -->
<g id="edge1" class="edge">
<title>operator&#45;&gt;entry</title>
<path fill="none" stroke="#475569" d="M95.53,-52C95.53,-52 272.72,-52 272.72,-52"/>
<polygon fill="#475569" stroke="#475569" points="272.72,-54.45 279.72,-52 272.72,-49.55 272.72,-54.45"/>
</g>
<!-- entry&#45;&gt;operator -->
<g id="edge17" class="edge">
<title>entry&#45;&gt;operator</title>
<path fill="none" stroke="#475569" d="M279.51,-40C279.51,-40 101.86,-40 101.86,-40"/>
<polygon fill="#475569" stroke="#475569" points="101.86,-37.55 94.86,-40 101.86,-42.45 101.86,-37.55"/>
</g>
<!-- snapshot -->
<g id="node3" class="node">
<title>snapshot</title>
<path fill="#f8fafc" stroke="#334155" d="M663.29,-64.38C663.29,-64.38 580.29,-64.38 580.29,-64.38 574.29,-64.38 568.29,-58.38 568.29,-52.38 568.29,-52.38 568.29,-40.38 568.29,-40.38 568.29,-34.38 574.29,-28.38 580.29,-28.38 580.29,-28.38 663.29,-28.38 663.29,-28.38 669.29,-28.38 675.29,-34.38 675.29,-40.38 675.29,-40.38 675.29,-52.38 675.29,-52.38 675.29,-58.38 669.29,-64.38 663.29,-64.38"/>
<text text-anchor="middle" x="621.79" y="-43.58" font-family="Helvetica,sans-Serif" font-size="11.00">SnapshotSource</text>
</g>
<!-- entry&#45;&gt;snapshot -->
<g id="edge2" class="edge">
<title>entry&#45;&gt;snapshot</title>
<path fill="none" stroke="#475569" d="M387.96,-52C387.96,-52 560.86,-52 560.86,-52"/>
<polygon fill="#475569" stroke="#475569" points="560.86,-54.45 567.86,-52 560.86,-49.55 560.86,-54.45"/>
</g>
<!-- entry&#45;&gt;snapshot -->
<g id="edge8" class="edge">
<title>entry&#45;&gt;snapshot</title>
<path fill="none" stroke="#475569" stroke-dasharray="5,2" d="M387.96,-40C387.96,-40 560.86,-40 560.86,-40"/>
<polygon fill="#475569" stroke="#475569" points="560.86,-42.45 567.86,-40 560.86,-37.55 560.86,-42.45"/>
</g>
<!-- planner -->
<g id="node4" class="node">
<title>planner</title>
<path fill="#f8fafc" stroke="#334155" d="M879.79,-64.38C879.79,-64.38 839.79,-64.38 839.79,-64.38 833.79,-64.38 827.79,-58.38 827.79,-52.38 827.79,-52.38 827.79,-40.38 827.79,-40.38 827.79,-34.38 833.79,-28.38 839.79,-28.38 839.79,-28.38 879.79,-28.38 879.79,-28.38 885.79,-28.38 891.79,-34.38 891.79,-40.38 891.79,-40.38 891.79,-52.38 891.79,-52.38 891.79,-58.38 885.79,-64.38 879.79,-64.38"/>
<text text-anchor="middle" x="859.79" y="-43.58" font-family="Helvetica,sans-Serif" font-size="11.00">Planner</text>
</g>
<!-- snapshot&#45;&gt;planner -->
<g id="edge5" class="edge">
<title>snapshot&#45;&gt;planner</title>
<path fill="none" stroke="#475569" d="M675.5,-52C675.5,-52 820.5,-52 820.5,-52"/>
<polygon fill="#475569" stroke="#475569" points="820.5,-54.45 827.5,-52 820.5,-49.55 820.5,-54.45"/>
</g>
<!-- snapshot&#45;&gt;planner -->
<g id="edge14" class="edge">
<title>snapshot&#45;&gt;planner</title>
<path fill="none" stroke="#475569" stroke-dasharray="5,2" d="M675.5,-40C675.5,-40 820.5,-40 820.5,-40"/>
<polygon fill="#475569" stroke="#475569" points="820.5,-42.45 827.5,-40 820.5,-37.55 820.5,-42.45"/>
</g>
<!-- policy -->
<g id="node5" class="node">
<title>policy</title>
<path fill="#f8fafc" stroke="#334155" d="M1582.29,-64.38C1582.29,-64.38 1551.29,-64.38 1551.29,-64.38 1545.29,-64.38 1539.29,-58.38 1539.29,-52.38 1539.29,-52.38 1539.29,-40.38 1539.29,-40.38 1539.29,-34.38 1545.29,-28.38 1551.29,-28.38 1551.29,-28.38 1582.29,-28.38 1582.29,-28.38 1588.29,-28.38 1594.29,-34.38 1594.29,-40.38 1594.29,-40.38 1594.29,-52.38 1594.29,-52.38 1594.29,-58.38 1588.29,-64.38 1582.29,-64.38"/>
<text text-anchor="middle" x="1566.79" y="-43.58" font-family="Helvetica,sans-Serif" font-size="11.00">Policy</text>
</g>
<!-- snapshot&#45;&gt;policy -->
<g id="edge9" class="edge">
<title>snapshot&#45;&gt;policy</title>
<path fill="none" stroke="#475569" stroke-dasharray="5,2" d="M639.62,-64.58C639.62,-69.26 639.62,-73 639.62,-73 639.62,-73 1566.79,-73 1566.79,-73 1566.79,-73 1566.79,-71.58 1566.79,-71.58"/>
<polygon fill="#475569" stroke="#475569" points="1569.24,-71.58 1566.79,-64.58 1564.34,-71.58 1569.24,-71.58"/>
<text text-anchor="middle" x="1369.79" y="-92.77" font-family="Helvetica,sans-Serif" font-size="10.00">9. preSubmitRecheck()</text>
</g>
<!-- pool -->
<g id="node7" class="node">
<title>pool</title>
<path fill="#f8fafc" stroke="#334155" d="M2064.29,-64.38C2064.29,-64.38 1971.29,-64.38 1971.29,-64.38 1965.29,-64.38 1959.29,-58.38 1959.29,-52.38 1959.29,-52.38 1959.29,-40.38 1959.29,-40.38 1959.29,-34.38 1965.29,-28.38 1971.29,-28.38 1971.29,-28.38 2064.29,-28.38 2064.29,-28.38 2070.29,-28.38 2076.29,-34.38 2076.29,-40.38 2076.29,-40.38 2076.29,-52.38 2076.29,-52.38 2076.29,-58.38 2070.29,-64.38 2064.29,-64.38"/>
<text text-anchor="middle" x="2017.79" y="-43.58" font-family="Helvetica,sans-Serif" font-size="11.00">Ajna pool / ERC20</text>
</g>
<!-- snapshot&#45;&gt;pool -->
<g id="edge3" class="edge">
<title>snapshot&#45;&gt;pool</title>
<path fill="none" stroke="#475569" d="M639.62,-28.08C639.62,-17.79 639.62,-7 639.62,-7 639.62,-7 1998.29,-7 1998.29,-7 1998.29,-7 1998.29,-21.08 1998.29,-21.08"/>
<polygon fill="#475569" stroke="#475569" points="1995.84,-21.08 1998.29,-28.08 2000.74,-21.08 1995.84,-21.08"/>
<text text-anchor="middle" x="812.79" y="-92.77" font-family="Helvetica,sans-Serif" font-size="10.00">3. read pool + borrower state</text>
</g>
<!-- planner&#45;&gt;policy -->
<g id="edge6" class="edge">
<title>planner&#45;&gt;policy</title>
<path fill="none" stroke="#475569" d="M892.01,-46C892.01,-46 1532.1,-46 1532.1,-46"/>
<polygon fill="#475569" stroke="#475569" points="1532.1,-48.45 1539.1,-46 1532.1,-43.55 1532.1,-48.45"/>
</g>
<!-- executor -->
<g id="node6" class="node">
<title>executor</title>
<path fill="#f8fafc" stroke="#334155" d="M1846.29,-64.38C1846.29,-64.38 1753.29,-64.38 1753.29,-64.38 1747.29,-64.38 1741.29,-58.38 1741.29,-52.38 1741.29,-52.38 1741.29,-40.38 1741.29,-40.38 1741.29,-34.38 1747.29,-28.38 1753.29,-28.38 1753.29,-28.38 1846.29,-28.38 1846.29,-28.38 1852.29,-28.38 1858.29,-34.38 1858.29,-40.38 1858.29,-40.38 1858.29,-52.38 1858.29,-52.38 1858.29,-58.38 1852.29,-64.38 1846.29,-64.38"/>
<text text-anchor="middle" x="1799.79" y="-43.58" font-family="Helvetica,sans-Serif" font-size="11.00">Execution backend</text>
</g>
<!-- planner&#45;&gt;executor -->
<g id="edge15" class="edge">
<title>planner&#45;&gt;executor</title>
<path fill="none" stroke="#475569" stroke-dasharray="5,2" d="M859.79,-28.3C859.79,-20.88 859.79,-14 859.79,-14 859.79,-14 1799.79,-14 1799.79,-14 1799.79,-14 1799.79,-21.3 1799.79,-21.3"/>
<polygon fill="#475569" stroke="#475569" points="1797.34,-21.3 1799.79,-28.3 1802.24,-21.3 1797.34,-21.3"/>
<text text-anchor="middle" x="968.79" y="-92.77" font-family="Helvetica,sans-Serif" font-size="10.00">15. continue or abort</text>
</g>
<!-- policy&#45;&gt;entry -->
<g id="edge7" class="edge">
<title>policy&#45;&gt;entry</title>
<path fill="none" stroke="#475569" d="M1566.79,-28.21C1566.79,-24.14 1566.79,-21 1566.79,-21 1566.79,-21 333.79,-21 333.79,-21 333.79,-21 333.79,-21.72 333.79,-21.72"/>
<polygon fill="#475569" stroke="#475569" points="331.34,-21.21 333.79,-28.21 336.24,-21.21 331.34,-21.21"/>
<text text-anchor="middle" x="1466.79" y="-92.77" font-family="Helvetica,sans-Serif" font-size="10.00">7. validate or abort</text>
</g>
<!-- policy&#45;&gt;executor -->
<g id="edge10" class="edge">
<title>policy&#45;&gt;executor</title>
<path fill="none" stroke="#475569" d="M1594.43,-46C1594.43,-46 1733.98,-46 1733.98,-46"/>
<polygon fill="#475569" stroke="#475569" points="1733.98,-48.45 1740.98,-46 1733.98,-43.55 1733.98,-48.45"/>
</g>
<!-- executor&#45;&gt;entry -->
<g id="edge16" class="edge">
<title>executor&#45;&gt;entry</title>
<path fill="none" stroke="#475569" d="M1819.29,-64.53C1819.29,-76.88 1819.29,-91 1819.29,-91 1819.29,-91 333.79,-91 333.79,-91 333.79,-91 333.79,-71.53 333.79,-71.53"/>
<polygon fill="#475569" stroke="#475569" points="336.24,-71.53 333.79,-64.53 331.34,-71.53 336.24,-71.53"/>
<text text-anchor="middle" x="559.79" y="-92.77" font-family="Helvetica,sans-Serif" font-size="10.00">16. CycleResult</text>
</g>
<!-- executor&#45;&gt;snapshot -->
<g id="edge13" class="edge">
<title>executor&#45;&gt;snapshot</title>
<path fill="none" stroke="#475569" stroke-dasharray="5,2" d="M1780.29,-64.61C1780.29,-73.37 1780.29,-82 1780.29,-82 1780.29,-82 603.96,-82 603.96,-82 603.96,-82 603.96,-71.61 603.96,-71.61"/>
<polygon fill="#475569" stroke="#475569" points="606.41,-71.61 603.96,-64.61 601.51,-71.61 606.41,-71.61"/>
<text text-anchor="middle" x="1232.79" y="-92.77" font-family="Helvetica,sans-Serif" font-size="10.00">13. if multi&#45;step: fetch fresh snapshot</text>
</g>
<!-- executor&#45;&gt;pool -->
<g id="edge11" class="edge">
<title>executor&#45;&gt;pool</title>
<path fill="none" stroke="#475569" d="M1858.5,-52C1858.5,-52 1951.98,-52 1951.98,-52"/>
<polygon fill="#475569" stroke="#475569" points="1951.98,-54.45 1958.98,-52 1951.98,-49.55 1951.98,-54.45"/>
</g>
<!-- pool&#45;&gt;snapshot -->
<g id="edge4" class="edge">
<title>pool&#45;&gt;snapshot</title>
<path fill="none" stroke="#475569" d="M2037.29,-28.32C2037.29,-15.29 2037.29,0 2037.29,0 2037.29,0 603.96,0 603.96,0 603.96,0 603.96,-21.32 603.96,-21.32"/>
<polygon fill="#475569" stroke="#475569" points="601.51,-21.32 603.96,-28.32 606.41,-21.32 601.51,-21.32"/>
<text text-anchor="middle" x="1082.79" y="-92.77" font-family="Helvetica,sans-Serif" font-size="10.00">4. passive path + candidates</text>
</g>
<!-- pool&#45;&gt;executor -->
<g id="edge12" class="edge">
<title>pool&#45;&gt;executor</title>
<path fill="none" stroke="#475569" d="M1959.08,-40C1959.08,-40 1865.6,-40 1865.6,-40"/>
<polygon fill="#475569" stroke="#475569" points="1865.6,-37.55 1858.6,-40 1865.6,-42.45 1865.6,-37.55"/>
</g>
</g>
</svg>
